<?xml version="1.0" encoding="utf-8"?>
<!-- Generator: Adobe Illustrator 16.0.3, SVG Export Plug-In . SVG Version: 6.00 Build 0)  -->
<!DOCTYPE svg PUBLIC "-//W3C//DTD SVG 1.1//EN" "http://www.w3.org/Graphics/SVG/1.1/DTD/svg11.dtd">
<svg version="1.1" id="Layer_1" xmlns="http://www.w3.org/2000/svg" xmlns:xlink="http://www.w3.org/1999/xlink" x="0px" y="0px"
	 width="32px" height="32px" viewBox="0 0 32 32" enable-background="new 0 0 32 32" xml:space="preserve">
<g>
	<path fill="#FFF" d="M14.094,9.617c0-0.82,0.672-1.492,1.492-1.492h0.994c0.82,0,1.492,0.672,1.492,1.492v0.995
		c0,0.82-0.672,1.492-1.492,1.492h-0.994c-0.82,0-1.492-0.672-1.492-1.492V9.617z"/>
	<path fill="#FFF" d="M20.063,24.042h-7.958v-1.99h1.99v-5.969h-1.99v-1.989h5.968v7.958h1.99V24.042z"/>
	<path fill="#FFF" d="M16.083,0.167c-8.79,0-15.917,7.126-15.917,15.917S7.293,32,16.083,32S32,24.873,32,16.083
		S24.873,0.167,16.083,0.167z M16.083,29.016c-7.142,0-12.932-5.79-12.932-12.933c0-7.142,5.79-12.932,12.932-12.932
		c7.143,0,12.933,5.79,12.933,12.932C29.016,23.226,23.226,29.016,16.083,29.016z"/>
</g>
</svg>
